<svg xmlns="http://www.w3.org/2000/svg" width="36" height="36" viewBox="0 0 36 36">
  <path id="Path_41285" data-name="Path 41285" d="M2.115,9.689A4.628,4.628,0,0,0,0,13.592V31.755a4.552,4.552,0,0,0,4.5,4.6h27a4.552,4.552,0,0,0,4.5-4.6V13.592a4.628,4.628,0,0,0-2.115-3.9l-13.5-8.631a4.415,4.415,0,0,0-4.77,0ZM8,15.264a2.219,2.219,0,0,0-3.12.638A2.334,2.334,0,0,0,5.5,19.094l11.25,7.672a2.208,2.208,0,0,0,2.5,0L30.5,19.094a2.334,2.334,0,0,0,.624-3.192A2.219,2.219,0,0,0,28,15.264L18,22.085Z" transform="translate(0 -0.358)" fill="#fff" fill-rule="evenodd"/>
</svg>
